<?xml version="1.0" encoding="UTF-8" standalone="no"?>
<!-- Created with Inkscape (http://www.inkscape.org/) -->

<svg
   xmlns:dc="http://purl.org/dc/elements/1.1/"
   xmlns:cc="http://creativecommons.org/ns#"
   xmlns:rdf="http://www.w3.org/1999/02/22-rdf-syntax-ns#"
   xmlns:svg="http://www.w3.org/2000/svg"
   xmlns="http://www.w3.org/2000/svg"
   xmlns:sodipodi="http://sodipodi.sourceforge.net/DTD/sodipodi-0.dtd"
   xmlns:inkscape="http://www.inkscape.org/namespaces/inkscape"
   width="1280"
   height="640"
   viewBox="0 0 338.66666 169.33334"
   version="1.1"
   id="svg8"
   inkscape:version="0.92.2 5c3e80d, 2017-08-06"
   sodipodi:docname="workflowr-open-graph.svg">
  <defs
     id="defs2">
    <marker
       inkscape:stockid="Arrow1Lend"
       orient="auto"
       refY="0"
       refX="0"
       id="Arrow1Lend"
       style="overflow:visible"
       inkscape:isstock="true">
      <path
         id="path1006"
         d="M 0,0 5,-5 -12.5,0 5,5 Z"
         style="fill:#000000;fill-opacity:1;fill-rule:evenodd;stroke:#000000;stroke-width:1.00000003pt;stroke-opacity:1"
         transform="matrix(-0.8,0,0,-0.8,-10,0)"
         inkscape:connector-curvature="0" />
    </marker>
    <clipPath
       clipPathUnits="userSpaceOnUse"
       id="clipPath22">
      <path
         d="M 0,360 H 361 V 0 H 0 Z"
         id="path20"
         inkscape:connector-curvature="0" />
    </clipPath>
    <clipPath
       clipPathUnits="userSpaceOnUse"
       id="clipPath54">
      <path
         d="M 0,360 H 361 V 0 H 0 Z"
         id="path52"
         inkscape:connector-curvature="0" />
    </clipPath>
  </defs>
  <sodipodi:namedview
     id="base"
     pagecolor="#ffffff"
     bordercolor="#666666"
     borderopacity="1.0"
     inkscape:pageopacity="0.0"
     inkscape:pageshadow="2"
     inkscape:zoom="0.49497475"
     inkscape:cx="721.66622"
     inkscape:cy="353.91744"
     inkscape:document-units="px"
     inkscape:current-layer="layer1"
     showgrid="false"
     inkscape:window-width="1440"
     inkscape:window-height="775"
     inkscape:window-x="0"
     inkscape:window-y="1"
     inkscape:window-maximized="1"
     units="px" />
  <metadata
     id="metadata5">
    <rdf:RDF>
      <cc:Work
         rdf:about="">
        <dc:format>image/svg+xml</dc:format>
        <dc:type
           rdf:resource="http://purl.org/dc/dcmitype/StillImage" />
        <dc:title></dc:title>
      </cc:Work>
    </rdf:RDF>
  </metadata>
  <g
     inkscape:label="Layer 1"
     inkscape:groupmode="layer"
     id="layer1"
     transform="translate(0,-127.66665)">
    <g
       id="g1725"
       transform="matrix(7.1821336,0,0,7.1821336,-223.05104,-1040.9075)">
      <g
         inkscape:label="Layer 1"
         id="layer1-0"
         transform="translate(34.78965,-115.89118)">
        <rect
           style="opacity:1;fill:#6e2e9e;fill-opacity:1;stroke:none;stroke-width:1.33975041;stroke-miterlimit:4;stroke-dasharray:none;stroke-opacity:1"
           id="rect839"
           width="39.6875"
           height="13.229167"
           x="0"
           y="283.77081"
           ry="1.6341387"
           rx="0" />
        <g
           id="g863">
          <path
             d="m 1.8221638,293.55003 c 0,-0.0664 0.053828,-0.12028 0.1202788,-0.12028 h 4.2663227 c 0.066392,0 0.1202192,0.0539 0.1202192,0.12028 v 0.48106 c 0,0.0664 -0.053828,0.12028 -0.1202192,0.12028 H 1.9424426 c -0.066451,0 -0.1202788,-0.0539 -0.1202788,-0.12028 z"
             style="fill:#ffffff;fill-opacity:1;stroke:none;stroke-width:0.11908787;stroke-linecap:butt;stroke-linejoin:miter;stroke-miterlimit:10;stroke-dasharray:none;stroke-opacity:1"
             id="path34"
             inkscape:connector-curvature="0" />
          <path
             d="m 5.9008041,294.28598 -0.4060897,1.56619 H 2.5717027 l -0.4060301,-1.56619 z"
             style="fill:#ffffff;fill-opacity:1;stroke:none;stroke-width:0.17863181;stroke-linecap:butt;stroke-linejoin:miter;stroke-miterlimit:10;stroke-dasharray:none;stroke-opacity:1"
             id="path42"
             inkscape:connector-curvature="0" />
          <path
             d="m 2.1339535,291.32885 c 0,0 0.059604,0.0744 0.1190879,0.25306 0.059544,0.17863 0.1824426,0.52018 0.3423776,0.72941 0.031797,0.0416 0.2381757,0.46153 1.0420189,0.31261 0,0 0.089316,-0.32749 -0.2828337,-0.8931 -0.3721496,-0.56573 -1.1015628,-0.37221 -1.2206507,-0.40198"
             style="fill:#ffffff;fill-opacity:1;fill-rule:nonzero;stroke:none;stroke-width:0.05954393;stroke-opacity:1"
             id="path90"
             inkscape:connector-curvature="0" />
          <path
             d="m 4.3670833,292.41506 c 0,0 -0.059544,-1.92023 1.860748,-1.62251 0,0 -0.186313,0.24187 -0.2381758,0.59544 -0.055435,0.37762 -0.3304688,0.74852 -0.4792691,0.84844 -0.4436619,0.29772 -1.1433031,0.17863 -1.1433031,0.17863"
             style="fill:#ffffff;fill-opacity:1;fill-rule:nonzero;stroke:none;stroke-width:0.05954393;stroke-opacity:1"
             id="path94"
             inkscape:connector-curvature="0" />
          <path
             d="m 4.0148809,291.09172 v 2.02455"
             style="fill:#ffffff;fill-opacity:1;stroke:#ffffff;stroke-width:0.23817573;stroke-linecap:butt;stroke-linejoin:miter;stroke-miterlimit:10;stroke-dasharray:none;stroke-opacity:1"
             id="path98"
             inkscape:connector-curvature="0" />
          <g
             style="fill:#ffffff;fill-opacity:1;stroke:none;stroke-opacity:1"
             transform="matrix(0.05022469,0,0,-0.05022469,-9.283753,292.78078)"
             id="g2732">
            <path
               inkscape:connector-curvature="0"
               style="opacity:1;fill:#ffffff;fill-opacity:1;stroke:none;stroke-width:5;stroke-miterlimit:4;stroke-dasharray:none;stroke-opacity:1"
               d="m 354.91602,288.81445 a 66.101693,66.101693 0 0 0 -64.35547,51.36719 l 5.46289,-5.46289 4.94922,-4.94922 12.48242,12.48242 a 43.355931,43.355931 0 0 1 41.46094,-30.69336 43.355931,43.355931 0 0 1 4.89257,0.30274 l 10.26563,-10.26563 -12.69336,-12.69336 a 66.101693,66.101693 0 0 0 -2.46484,-0.0879 z m 13.8164,1.54102 6.29102,6.29101 4.94922,4.94922 -11.99219,11.99219 a 43.355931,43.355931 0 0 1 30.29101,41.32813 43.355931,43.355931 0 0 1 -0.3164,4.98046 l 10.17773,10.17774 12.80078,-12.80274 a 66.101693,66.101693 0 0 0 0.084,-2.35546 66.101693,66.101693 0 0 0 -52.28516,-64.56055 z m -67.75976,49.3125 -12.04493,12.04492 a 66.101693,66.101693 0 0 0 -0.11328,3.20313 66.101693,66.101693 0 0 0 54.69532,65.10156 l -8.70118,-8.70117 -0.0898,0.0898 -4.94922,-4.94922 0.0899,-0.0898 -0.0899,-0.0899 4.94922,-4.94922 0.0898,0.0899 5.67383,-5.67383 a 43.355931,43.355931 0 0 1 -28.92383,-40.82812 43.355931,43.355931 0 0 1 0.23243,-4.42969 z m 95.24218,28.38672 a 43.355931,43.355931 0 0 1 -41.29882,30.21679 43.355931,43.355931 0 0 1 -6.51563,-0.54687 l -8.64258,8.64258 14.63086,14.63086 a 66.101693,66.101693 0 0 0 0.52735,0.0195 66.101693,66.101693 0 0 0 64.59179,-52.41992 l -11.46484,11.46484 -4.95117,-4.94922 0.0918,-0.0898 z"
               transform="matrix(0.75000002,0,0,-0.75000002,0,360.00001)"
               id="path2640" />
            <path
               style="opacity:1;fill:#ffffff;fill-opacity:1;stroke:none;stroke-width:6.83023262;stroke-miterlimit:4;stroke-dasharray:none;stroke-opacity:1"
               d="M 225.79598,105.18169 203.05951,82.444296 h 45.47386 z"
               id="rect2557"
               inkscape:connector-curvature="0" />
            <path
               inkscape:connector-curvature="0"
               id="path2562"
               d="m 306.09931,82.444299 22.73648,22.737381 -45.47363,1e-5 z"
               style="opacity:1;fill:#ffffff;fill-opacity:1;stroke:none;stroke-width:6.83023262;stroke-miterlimit:4;stroke-dasharray:none;stroke-opacity:1" />
            <path
               inkscape:connector-curvature="0"
               id="path2590"
               d="m 277.55559,133.80322 -22.73714,22.73647 -1e-5,-45.47362 z"
               style="opacity:1;fill:#ffffff;fill-opacity:1;stroke:none;stroke-width:6.83023262;stroke-miterlimit:4;stroke-dasharray:none;stroke-opacity:1" />
            <path
               style="opacity:1;fill:#ffffff;fill-opacity:1;stroke:none;stroke-width:6.83023262;stroke-miterlimit:4;stroke-dasharray:none;stroke-opacity:1"
               d="m 254.81844,55.224064 22.73714,-22.736719 10e-6,45.47386 z"
               id="path2592"
               inkscape:connector-curvature="0" />
          </g>
        </g>
        <g
           transform="matrix(1.2637371,0,0,1.2637371,6.7015347,-80.764961)"
           id="layer1-9"
           inkscape:label="Layer 1"
           style="fill:#ffffff;fill-opacity:1">
          <text
             id="text7985"
             y="295.69647"
             x="0.86686289"
             style="font-style:normal;font-variant:normal;font-weight:600;font-stretch:normal;font-size:5.64444447px;line-height:1.25;font-family:'Myriad Pro';-inkscape-font-specification:'Myriad Pro, Semi-Bold';font-variant-ligatures:normal;font-variant-caps:normal;font-variant-numeric:normal;font-feature-settings:normal;text-align:start;letter-spacing:0px;word-spacing:0px;writing-mode:lr-tb;text-anchor:start;fill:#ffffff;fill-opacity:1;stroke:none;stroke-width:0.26458332"
             xml:space="preserve"><tspan
               style="font-style:normal;font-variant:normal;font-weight:600;font-stretch:normal;font-size:5.64444447px;font-family:'Myriad Pro';-inkscape-font-specification:'Myriad Pro, Semi-Bold';font-variant-ligatures:normal;font-variant-caps:normal;font-variant-numeric:normal;font-feature-settings:normal;text-align:start;writing-mode:lr-tb;text-anchor:start;fill:#ffffff;fill-opacity:1;stroke-width:0.26458332"
               y="295.69647"
               x="0.86686289"
               id="tspan7983"
               sodipodi:role="line">workflowr</tspan></text>
        </g>
      </g>
    </g>
  </g>
</svg>
